<?xml version="1.0" encoding="UTF-8"?>
<!DOCTYPE svg PUBLIC "-//W3C//DTD SVG 1.1//EN" "http://www.w3.org/Graphics/SVG/1.1/DTD/svg11.dtd">
<!-- Creator: CorelDRAW -->
<svg xmlns="http://www.w3.org/2000/svg" xml:space="preserve" width="169.811mm" height="62.1012mm" version="1.1" style="shape-rendering:geometricPrecision; text-rendering:geometricPrecision; image-rendering:optimizeQuality; fill-rule:evenodd; clip-rule:evenodd"
viewBox="0 0 16992.47 6214.27"
 xmlns:xlink="http://www.w3.org/1999/xlink"
 xmlns:xodm="http://www.corel.com/coreldraw/odm/2003">
 <defs>
  <style type="text/css">
   <![CDATA[
    .str0 {stroke:#D6733A;stroke-width:20.01;stroke-miterlimit:22.9256}
    .fil1 {fill:#F08A4F}
    .fil0 {fill:#FFFBF1}
   ]]>
  </style>
 </defs>
 <rect class="fil0" x="-2023.59" y="-172416.98" width="21014.03" height="220147.01"/>
 <g id="Слой_x0020_1">
  <metadata id="CorelCorpID_0Corel-Layer"/>
  <path class="fil1 str0" d="M1568.49 1676.31c1240.39,-703.29 3238.78,-1385.06 5270.95,-1592.26 2032.16,-207.21 4098.08,60.16 5573.88,314.7 1475.8,254.54 2361.49,496.26 2989.32,730.45 627.84,234.19 997.82,460.82 1279.38,1129.81 281.58,668.99 474.74,1780.35 65.39,2447.68 -409.32,667.33 -1421.16,890.63 -2996.2,1109.55 -1575.04,218.91 -3713.31,433.41 -5751.03,379.79 -2037.71,-53.64 -3974.89,-375.37 -5397.6,-814.53 -1422.72,-439.16 -2330.99,-995.72 -2543.92,-1636.41 -212.94,-640.69 269.43,-1365.5 1509.83,-2068.78z"/>
 </g>
</svg>
