<?xml version="1.0" encoding="UTF-8"?>
<!DOCTYPE svg PUBLIC "-//W3C//DTD SVG 1.1//EN" "http://www.w3.org/Graphics/SVG/1.1/DTD/svg11.dtd">
<!-- Creator: CorelDRAW -->
<svg xmlns="http://www.w3.org/2000/svg" xml:space="preserve" width="205.013mm" height="70.1963mm" version="1.1" style="shape-rendering:geometricPrecision; text-rendering:geometricPrecision; image-rendering:optimizeQuality; fill-rule:evenodd; clip-rule:evenodd"
viewBox="0 0 20469.25 7008.64"
 xmlns:xlink="http://www.w3.org/1999/xlink"
 xmlns:xodm="http://www.corel.com/coreldraw/odm/2003">
 <defs>
  <style type="text/css">
   <![CDATA[
    .str0 {stroke:#C39269;stroke-width:19.97;stroke-miterlimit:22.9256}
    .fil1 {fill:#C39269}
    .fil0 {fill:#FFFBF1}
   ]]>
  </style>
 </defs>
 <rect class="fil0" x="-240" y="-23850.48" width="20967.12" height="209671.2"/>
 <g id="Слой_x0020_1">
  <metadata id="CorelCorpID_0Corel-Layer"/>
  <path class="fil1 str0" d="M2952.87 1520.21c1662.8,-557.28 3655.46,-1233.97 5681.78,-1439.63 2026.32,-205.67 4086.31,59.72 5513.49,497.57 1427.18,437.85 2221.55,1048.2 2995.72,1174.25 774.19,126.05 1528.16,-232.2 2248.48,325.08 720.32,557.28 1406.98,2030.07 881.89,2998.66 -525.1,968.6 -2261.94,1432.99 -4348.87,1340.12 -2086.91,-92.88 -4523.88,-743.04 -6745.43,-504.2 -2221.55,238.83 -4227.67,1366.64 -5951.05,1021.67 -1723.4,-344.99 -3164.03,-2162.76 -3217.88,-3290.58 -53.87,-1127.81 1279.06,-1565.66 2941.87,-2122.93z"/>
 </g>
</svg>
