<?xml version="1.0" encoding="UTF-8"?>
<!DOCTYPE svg PUBLIC "-//W3C//DTD SVG 1.1//EN" "http://www.w3.org/Graphics/SVG/1.1/DTD/svg11.dtd">
<!-- Creator: CorelDRAW -->
<svg xmlns="http://www.w3.org/2000/svg" xml:space="preserve" width="202.896mm" height="80.9402mm" version="1.1" style="shape-rendering:geometricPrecision; text-rendering:geometricPrecision; image-rendering:optimizeQuality; fill-rule:evenodd; clip-rule:evenodd"
viewBox="0 0 20364.11 8123.75"
 xmlns:xlink="http://www.w3.org/1999/xlink"
 xmlns:xodm="http://www.corel.com/coreldraw/odm/2003">
 <defs>
  <style type="text/css">
   <![CDATA[
    .str0 {stroke:#C39269;stroke-width:20.07;stroke-miterlimit:22.9256}
    .fil1 {fill:#C39269}
    .fil0 {fill:#FFFBF1}
   ]]>
  </style>
 </defs>
 <rect class="fil0" x="-400.94" y="-23745.12" width="21077.14" height="210771.42"/>
 <g id="Слой_x0020_1">
  <metadata id="CorelCorpID_0Corel-Layer"/>
  <path class="fil1 str0" d="M2741.19 1374.5c1596.67,-640.77 3634.53,-1229.02 5701.01,-1342.97 2066.47,-113.96 4161.56,246.4 5656.25,569.24 1494.7,322.83 2389.01,608.14 3227.02,701.09 838.01,92.93 1619.72,-6.49 2246.92,684.34 627.21,690.85 1099.9,2171.97 516.9,3490.28 -582.99,1318.31 -2221.69,2473.8 -4312.08,2620.86 -2090.38,147.06 -4632.45,-714.3 -6932.93,-656.52 -2300.48,57.77 -4359.36,1034.68 -5987.54,514.71 -1628.2,-519.97 -2825.69,-2536.83 -2846.7,-3891.9 -21.01,-1355.08 1134.47,-2048.37 2731.16,-2689.14z"/>
 </g>
</svg>
